# xmcd CD database file
#
# Track frame offsets:
#	150
#	14553
#	26387
#	48249
#	64447
#	77075
#	95569
#	111825
#	127106
#	147530
#	162595
#	178003
#	193002
#
# Disc length: 3437 seconds
#
# Revision: 7
# Processed by: cddbd v1.5.1PL0 Copyright (c) Steve Scherf et al.
# Submitted via: CDex 1.51
#
DISCID=be0d6b0d
DTITLE=Korn - Take A Look In The Mirror
DYEAR=2003
DGENRE=Heavy Rock
TTITLE0=Right Now
TTITLE1=Break Some Off
TTITLE2=Counting On Me
TTITLE3=Here It Comes Again
TTITLE4=Deep Inside
TTITLE5=Did My Time
TTITLE6=Everything I've Known
TTITLE7=Play Me
TTITLE8=Alive
TTITLE9=Let's Do This Now
TTITLE10=I'm Done
TTITLE11=Y'all Want A Single
TTITLE12=When Will This End
EXTD=YEAR: 2003
EXTT0=
EXTT1=
EXTT2=
EXTT3=
EXTT4=
EXTT5=
EXTT6=
EXTT7=
EXTT8=
EXTT9=
EXTT10=
EXTT11=
EXTT12=
PLAYORDER=
